PathFileType	4	(X/Y/Z)	c:\Git\powerlifing_model_clean\simulations\HC835B\Session1\HC835B_OGR_0001\marker_experimental.trc
DataRate	CameraRate	NumFrames	NumMarkers	Units	OrigDataRate	OrigDataStartFrame	OrigNumFrames
240.000000	240.000000	4	38	mm	240.000000	159	213
Frame#	Time	RPSI			LPSI			RASI			LASI			RTH1			RTH2			RTH3			RTH4			RSK1			RSK2			RSK3			RSK4			RCAL1			RCAL2			RCAL3			RST			RPT			RTN			RFMB			RSMB			RVMB			RFMH			RSMH			RVMH			RPM			LTH1			LTH2			LTH3			LTH4			LSK1			LSK2			LSK3			LSK4			LCAL1			LCAL2			LCAL3			LFMH			LVMH			
		X1	Y1	Z1	X2	Y2	Z2	X3	Y3	Z3	X4	Y4	Z4	X5	Y5	Z5	X6	Y6	Z6	X7	Y7	Z7	X8	Y8	Z8	X9	Y9	Z9	X10	Y10	Z10	X11	Y11	Z11	X12	Y12	Z12	X13	Y13	Z13	X14	Y14	Z14	X15	Y15	Z15	X16	Y16	Z16	X17	Y17	Z17	X18	Y18	Z18	X19	Y19	Z19	X20	Y20	Z20	X21	Y21	Z21	X22	Y22	Z22	X23	Y23	Z23	X24	Y24	Z24	X25	Y25	Z25	X26	Y26	Z26	X27	Y27	Z27	X28	Y28	Z28	X29	Y29	Z29	X30	Y30	Z30	X31	Y31	Z31	X32	Y32	Z32	X33	Y33	Z33	X34	Y34	Z34	X35	Y35	Z35	X36	Y36	Z36	X37	Y37	Z37	X38	Y38	Z38	

160	0.6625	510.7356872558595	1153.700805664063	-1836.51611328125	402.1305236816407	1151.480834960938	-1835.448974609375	569.3807373046876	1075.395385742188	-2032.006958007813	327.6318359375001	1063.641967773438	-2027.746704101563	652.5163574218751	840.710876464844	-2060.101318359375	642.5722045898439	859.7679443359377	-2117.167724609375	640.2742919921876	781.283142089844	-2119.046875	618.7252807617189	798.030700683594	-2171.074951171875	588.4630737304689	445.631317138672	-1969.611450195313	583.6946411132814	398.0217285156251	-2008.67578125	580.6195678710939	391.5809326171876	-1948.091064453125	564.3118286132814	347.9040222167969	-1985.4833984375	519.3858032226564	322.2951049804688	-1813.92724609375	480.3720703125001	297.7383422851563	-1797.301635742188	542.8732299804689	288.8231811523438	-1787.440551757813	468.8802185058595	261.9433898925782	-1858.916259765625	567.9941406250001	251.6730194091797	-1834.74560546875	485.2758178710939	234.3945770263672	-1908.33544921875	483.0200805664064	199.8257598876954	-1918.0166015625	534.0406494140626	200.8758239746094	-1936.547973632813	570.3229980468751	200.3831481933594	-1846.530639648438	471.3599548339845	139.8136291503907	-1933.776245117188	525.6315917968751	132.9670867919922	-1949.50048828125	577.5196533203126	136.5972137451172	-1894.572387695313	512.4544677734376	91.95431518554689	-1985.897216796875	276.6760559082032	806.802917480469	-1867.759643554688	284.3988037109376	779.9121704101565	-1921.733154296875	287.8397521972657	721.3723754882814	-1865.396118164063	311.1810913085938	697.7975463867189	-1916.439086914063	337.1714782714844	349.3940429687501	-1613.806518554688	333.0010681152344	309.4123229980469	-1648.806884765625	342.6313171386719	294.0484313964844	-1602.511108398438	352.9218750000001	254.2176818847657	-1641.262573242188	404.7805786132814	196.2213592529297	-1478.868286132813	381.1136169433594	160.0391082763672	-1458.909912109375	439.6481323242189	166.8099365234375	-1464.170654296875	468.5892333984376	52.63169479370119	-1640.925903320313	355.2324829101563	36.50269317626954	-1599.611572265625	
161	0.6666666666666666	510.4700012207032	1156.96044921875	-1851.75244140625	401.6690063476564	1154.019897460938	-1851.12158203125	569.1693725585939	1079.687622070313	-2046.76953125	327.6246337890626	1066.30029296875	-2043.444213867188	652.0182495117189	843.8494262695315	-2075.38916015625	642.4613037109376	862.8817138671877	-2132.5185546875	639.7919921875001	784.3568115234377	-2134.205078125	618.4718627929689	801.0756835937502	-2186.375732421875	586.7837524414064	441.015838623047	-1990.212646484375	582.6892089843751	394.8723144531251	-2031.052734375	579.0264892578126	386.1144409179689	-1970.811279296875	563.2752075195314	343.7075500488282	-2010.012573242188	516.9455566406251	310.9761657714844	-1839.755126953125	477.6499633789064	285.9547729492188	-1824.71826171875	540.1800537109376	276.6456909179688	-1814.452758789063	466.8972778320314	252.8517608642579	-1887.862670898438	565.7061767578126	241.3109741210938	-1862.97509765625	483.836883544922	227.3818817138672	-1938.168701171875	481.5884399414064	193.2563018798829	-1949.39599609375	532.8317871093751	194.7725830078126	-1967.147216796875	567.8297119140626	190.5630340576172	-1877.003173828125	469.9043884277345	134.0809936523438	-1967.820068359375	524.3333740234376	127.6586074829102	-1983.109741210938	575.6445312500001	128.8984832763672	-1927.308959960938	511.4044494628907	88.2422332763672	-2021.348999023438	276.1754455566407	810.828063964844	-1880.119506835938	284.8828735351563	783.1626586914065	-1933.432983398438	287.5698242187501	725.5772705078126	-1875.970336914063	311.7059326171876	701.1742553710939	-1926.330688476563	336.0939025878907	354.5173339843751	-1620.305419921875	331.6399230957032	314.1244506835938	-1655.376098632813	340.9740905761719	299.0391845703126	-1609.0986328125	350.4318237304688	259.1937866210938	-1647.959716796875	403.4925537109376	203.3346099853516	-1487.526977539063	380.2919311523438	167.7513427734375	-1465.988647460938	438.6233215332032	174.9326477050782	-1471.834350585938	468.2994079589845	53.61628723144533	-1643.0986328125	355.0289611816407	37.64778900146485	-1600.8212890625	
162	0.6708333333333333	510.0623168945314	1159.986206054688	-1867.051025390625	401.2552795410157	1156.61083984375	-1866.677734375	568.0627441406251	1083.867431640625	-2059.908203125	327.7481079101563	1068.903198242188	-2059.1416015625	651.4212646484376	846.8363037109377	-2090.485107421875	642.1691894531251	865.7110595703127	-2147.742919921875	639.1921997070314	787.1572875976565	-2149.19580078125	618.1245117187501	803.8543090820315	-2201.47509765625	585.0407104492189	436.2841796875001	-2010.687133789063	581.7262573242189	391.7199707031251	-2053.27734375	577.3602294921876	380.6737060546876	-1993.472900390625	562.5081176757814	339.7288208007813	-2034.375	514.3395996093751	299.7245483398438	-1865.936401367188	474.8070068359376	274.3606567382813	-1852.516357421875	537.2309570312501	264.4130554199219	-1841.746459960938	464.9024963378907	243.9680175781251	-1917.131713867188	563.0135498046876	230.8791656494141	-1890.9775390625	481.759490966797	221.3819732666016	-1970.03369140625	480.2827148437501	186.9525451660157	-1980.858642578125	531.8339233398439	189.2662506103516	-1998.14599609375	565.3383789062501	180.8212890625	-1907.291381835938	468.6994628906251	128.6531372070313	-2001.9658203125	523.3122558593751	122.7006072998047	-2016.787353515625	573.8767700195314	121.4990158081055	-1960.1220703125	510.6768493652345	85.01267242431642	-2056.834228515625	275.6258850097657	814.7998657226565	-1892.445678710938	285.2211914062501	786.324645996094	-1945.263061523438	287.2402954101563	729.7341308593751	-1886.767456054688	312.1960144042969	704.4655761718751	-1936.323852539063	334.9230957031251	359.5964660644532	-1627.081665039063	329.0460205078126	318.8944702148438	-1662.552856445313	339.4350585937501	304.0549316406251	-1615.736572265625	347.9682006835938	264.2640380859376	-1654.874267578125	401.9145507812501	210.6704711914063	-1496.782958984375	379.3509826660157	175.7917785644532	-1473.491333007813	437.3832092285157	183.3456115722657	-1480.044921875	467.7257385253907	55.06422424316408	-1645.723510742188	354.7715759277344	39.10618972778321	-1602.187255859375	
163	0.675	509.699920654297	1162.963745117188	-1882.3427734375	400.7921142578126	1159.0888671875	-1882.350341796875	567.7435302734376	1088.071166992188	-2074.912109375	327.9841308593751	1071.425415039063	-2074.898193359375	650.6997070312501	849.553894042969	-2105.44775390625	641.7817382812501	868.253112792969	-2162.79541015625	638.5211181640626	789.7265625000002	-2164.01123046875	617.6425170898439	806.2827758789065	-2216.37451171875	583.2290649414064	431.5175170898439	-2031.089111328125	580.8466186523439	388.4660949707032	-2075.341552734375	575.6810913085939	375.2473144531251	-2016.092529296875	561.7153320312501	335.6990966796876	-2058.6982421875	511.8913879394532	288.7830810546876	-1892.305419921875	471.9888610839845	262.7325744628907	-1880.625244140625	534.2287597656251	252.2369537353516	-1869.405029296875	462.9437255859376	235.2627563476563	-1946.6396484375	560.5520019531251	220.7214965820313	-1919.627319335938	480.4360656738282	215.0442504882813	-2000.240844726563	479.1022033691407	180.8777008056641	-2012.470336914063	530.9573974609376	183.7814483642578	-2028.907470703125	563.0966186523439	171.3921813964844	-1938.029052734375	467.6285705566407	123.6622543334961	-2036.231079101563	522.4954833984376	118.1595764160157	-2050.558837890625	572.1446533203126	114.3802642822266	-1992.923217773438	510.4109497070314	82.29518127441408	-2092.299072265625	274.9989624023438	818.704040527344	-1904.934692382813	285.4244384765626	789.241882324219	-1957.1533203125	286.9409179687501	733.6286621093751	-1897.564331054688	312.4537658691407	707.7643432617189	-1946.578979492188	333.5819091796876	364.5938110351563	-1633.988403320313	326.9427185058594	324.1061706542969	-1669.467407226563	337.7224121093751	308.8743896484376	-1622.952026367188	345.6670532226563	269.2564392089844	-1662.147216796875	400.1338195800782	218.2080841064454	-1506.3564453125	378.1814880371094	184.0453033447266	-1481.451416015625	435.977996826172	192.1056823730469	-1488.7138671875	466.9563903808595	56.71191024780275	-1648.755859375	354.6571655273438	40.97649765014649	-1603.494140625	
